<?xml version="1.0" encoding="UTF-8"?> <svg xmlns="http://www.w3.org/2000/svg" id="Capa_1" data-name="Capa 1" viewBox="0 0 216.79 112.81"><defs><style>.cls-1{fill:#263453;}.cls-2{fill:#5591a6;}.cls-3{fill:#c5ca3d;}</style></defs><title>logo</title><path class="cls-1" d="M13.39,94.84v23.61h-2.6V94.84H4.85V92.48H19.33v2.35Z" transform="translate(-4.85 -6.1)"></path><path class="cls-1" d="M38.29,118.45V106.26H24.84v12.19h-2.6v-26h2.6V103.9H38.29V92.48h2.6v26Z" transform="translate(-4.85 -6.1)"></path><path class="cls-1" d="M66.33,118.45l-3.76-8.75H50.48l-3.79,8.75H43.95l11.13-26H58l11.17,26Zm-9.77-23-5.1,11.91H61.55Z" transform="translate(-4.85 -6.1)"></path><path class="cls-1" d="M72.22,118.45v-26h2.6v23.61H85.57v2.36Z" transform="translate(-4.85 -6.1)"></path><path class="cls-1" d="M88.45,118.45v-26h14.2v2.35H91v9.31h11.21v2.35H91v9.59h11.6v2.36Z" transform="translate(-4.85 -6.1)"></path><path class="cls-1" d="M113.49,118.9a7.71,7.71,0,0,1-8.11-7.73h2.78c.39,3.48,2.49,5.34,5.41,5.34a5,5,0,0,0,5.12-5.16c0-2.84-1.33-4.07-5.79-5.44-3-.92-3.83-1.3-4.85-2.29a6.37,6.37,0,0,1-1.83-4.6,6.87,6.87,0,0,1,7.21-7c4.25,0,7.27,2.81,7.27,7H118a4.44,4.44,0,0,0-4.63-4.64,4.38,4.38,0,0,0-4.5,4.53,4.13,4.13,0,0,0,1.23,3c.67.6,1.48.91,3.83,1.61a14.44,14.44,0,0,1,4.81,2.08,6.8,6.8,0,0,1,2.6,5.55A7.56,7.56,0,0,1,113.49,118.9Z" transform="translate(-4.85 -6.1)"></path><path class="cls-2" d="M137.27,118.9A13.44,13.44,0,1,1,137.1,92c5.37,0,9.94,2.74,11.95,7.2h-2.92a9.84,9.84,0,0,0-8.92-4.81,10.78,10.78,0,0,0-10.93,11,11.07,11.07,0,0,0,11,11.07c3.8,0,6.29-1.44,9-4.88h2.89C146.55,116.44,142.54,118.9,137.27,118.9Z" transform="translate(-4.85 -6.1)"></path><path class="cls-2" d="M165.23,118.9a13.61,13.61,0,0,1-13.73-13.59c0-7.2,6.28-13.28,13.73-13.28a13.44,13.44,0,1,1,0,26.87Zm0-24.48a11,11,0,1,0,11.07,11.1A11.19,11.19,0,0,0,165.23,94.42Z" transform="translate(-4.85 -6.1)"></path><path class="cls-2" d="M193.08,108.75l7.27,9.7h-3.23l-8.75-11.77c7.27,0,9.73-1.26,9.73-5.94,0-4.32-2.67-5.9-8.71-5.9h-3.65v23.61h-2.6v-26h6.43c8.15,0,11.17,3,11.17,8.37C200.75,105.45,198.07,108.22,193.08,108.75Z" transform="translate(-4.85 -6.1)"></path><path class="cls-2" d="M212,107.94h-5v10.51h-2.6v-26h7.17c7.12,0,10,2.43,10,7.87C221.65,105.27,219.11,107.94,212,107.94Zm-1.3-13.11h-3.68v10.75h4.81c5.16,0,7.13-1.48,7.13-5.23C219,95.09,215.71,94.84,210.75,94.84Z" transform="translate(-4.85 -6.1)"></path><rect class="cls-1" x="90.52" y="33.47" width="12.25" height="36.93"></rect><rect class="cls-1" x="114.71" y="33.47" width="12.25" height="36.93"></rect><polygon class="cls-1" points="90.52 10.05 90.52 0 95.45 0 90.52 10.05"></polygon><polygon class="cls-3" points="108.74 0 96.65 24.72 126.96 24.72 126.96 0 108.74 0"></polygon></svg> 