<?xml version="1.0" encoding="UTF-8"?> <!-- Generator: Adobe Illustrator 21.0.0, SVG Export Plug-In . SVG Version: 6.00 Build 0) --> <svg xmlns="http://www.w3.org/2000/svg" xmlns:xlink="http://www.w3.org/1999/xlink" id="Capa_1" x="0px" y="0px" viewBox="0 0 226.5 125" style="enable-background:new 0 0 226.5 125;" xml:space="preserve"> <style type="text/css"> .st0{fill:#263453;} .st1{fill:#5591A6;} .st2{fill:#C5CA3D;} .st3{fill:#FFFFFF;} </style> <g> <g> <path class="st3" d="M13.7,94.7v23.5h-2.6V94.7H5.2v-2.3h14.4v2.3H13.7z"></path> <path class="st3" d="M38.5,118.3v-12.2H25.1v12.2h-2.6V92.4h2.6v11.4h13.4V92.4h2.6v25.9H38.5z"></path> <path class="st3" d="M66.5,118.3l-3.8-8.7H50.7l-3.8,8.7h-2.7l11.1-25.9h2.9l11.1,25.9H66.5z M56.7,95.3l-5.1,11.9h10.1L56.7,95.3 z"></path> <path class="st3" d="M72.3,118.3V92.4h2.6v23.5h10.7v2.3H72.3z"></path> <path class="st3" d="M88.5,118.3V92.4h14.2v2.3H91.1v9.3h11.2v2.3H91.1v9.6h11.6v2.3H88.5z"></path> <path class="st3" d="M113.5,118.7c-4.7,0-7.8-3-8.1-7.7h2.8c0.4,3.5,2.5,5.3,5.4,5.3c2.9,0,5.1-2.2,5.1-5.2c0-2.8-1.3-4.1-5.8-5.4 c-3-0.9-3.8-1.3-4.8-2.3c-1.2-1.1-1.8-2.8-1.8-4.6c0-4,3-7,7.2-7c4.2,0,7.3,2.8,7.3,7H118c0-2.8-2-4.6-4.6-4.6 c-2.6,0-4.5,1.9-4.5,4.5c0,1.2,0.5,2.4,1.2,3c0.7,0.6,1.5,0.9,3.8,1.6c2.7,0.8,3.8,1.3,4.8,2.1c1.6,1.2,2.6,3.3,2.6,5.5 C121.3,115.5,118,118.7,113.5,118.7z"></path> <path class="st3" d="M137.2,118.7c-7.7,0-13.6-5.8-13.6-13.3c0-7.7,5.7-13.5,13.4-13.5c5.4,0,9.9,2.7,11.9,7.2H146 c-2.2-3.5-5.3-4.8-8.9-4.8c-6.2,0-10.9,4.8-10.9,11c0,6.1,4.9,11,10.9,11c3.8,0,6.3-1.4,9-4.9h2.9 C146.5,116.3,142.5,118.7,137.2,118.7z"></path> <path class="st3" d="M165.1,118.7c-7.6,0-13.7-6-13.7-13.6c0-7.2,6.3-13.2,13.7-13.2c7.5,0,13.7,6,13.7,13.4 C178.8,112.7,172.6,118.7,165.1,118.7z M165.1,94.3c-6,0-11.1,5-11.1,10.9c0,6.1,5,11.1,11.1,11.1c6,0,11-5,11-11 C176.1,99.3,171.1,94.3,165.1,94.3z"></path> <path class="st3" d="M192.9,108.6l7.2,9.7h-3.2l-8.7-11.7c7.3,0,9.7-1.3,9.7-5.9c0-4.3-2.7-5.9-8.7-5.9h-3.6v23.5H183V92.4h6.4 c8.1,0,11.1,2.9,11.1,8.3C200.5,105.3,197.8,108.1,192.9,108.6z"></path> <path class="st3" d="M211.8,107.8h-5v10.5h-2.6V92.4h7.1c7.1,0,10,2.4,10,7.9C221.3,105.2,218.8,107.8,211.8,107.8z M210.5,94.7 h-3.7v10.7h4.8c5.1,0,7.1-1.5,7.1-5.2C218.7,95,215.4,94.7,210.5,94.7z"></path> </g> <g> <rect x="95.4" y="39.6" class="st3" width="12.2" height="36.8"></rect> <rect x="119.5" y="39.6" class="st3" width="12.2" height="36.8"></rect> <polygon class="st3" points="95.4,16.3 95.4,6.3 100.3,6.3 "></polygon> <polygon class="st3" points="113.6,6.3 101.5,30.9 131.8,30.9 131.8,6.3 "></polygon> </g> </g> </svg> 